<svg xmlns="http://www.w3.org/2000/svg" width="12" height="7" viewBox="0 0 12 7">
    <path fill="#CECECE" fill-rule="nonzero" d="M6 0C3.707 0 1.628 1.228.094 3.221a.457.457 0 0 0 0 .555C1.628 5.772 3.707 7 6 7c2.293 0 4.372-1.228 5.906-3.221a.457.457 0 0 0 0-.555C10.372 1.228 8.293 0 6 0zm.164 5.965c-1.521.093-2.778-1.134-2.683-2.626.079-1.23 1.098-2.227 2.355-2.304C7.357.942 8.614 2.17 8.519 3.661c-.081 1.227-1.1 2.224-2.355 2.304zm-.076-1.139c-.82.05-1.497-.61-1.443-1.412.042-.663.592-1.2 1.27-1.242.819-.05 1.496.61 1.442 1.412a1.35 1.35 0 0 1-1.269 1.242z"/>
</svg>
