<svg xmlns="http://www.w3.org/2000/svg" width="10" height="10" viewBox="0 0 10 10">
    <path fill="#FFF" fill-rule="nonzero" d="M8.161 6.356c-.584 0-1.099.275-1.435.698L3.605 5.47c.04-.15.07-.307.07-.471 0-.18-.035-.347-.084-.511L6.7 2.913c.334.442.863.73 1.463.73A1.83 1.83 0 0 0 10 1.822 1.83 1.83 0 0 0 8.162 0a1.83 1.83 0 0 0-1.837 1.821c0 .165.029.322.07.473l-3.12 1.583A1.835 1.835 0 0 0 0 5c0 1.006.822 1.822 1.837 1.822.6 0 1.129-.29 1.465-.732l3.106 1.576a1.786 1.786 0 0 0-.084.512A1.83 1.83 0 0 0 8.16 10a1.83 1.83 0 0 0 1.838-1.822 1.829 1.829 0 0 0-1.838-1.822z"/>
</svg>
